<?xml version="1.0" encoding="UTF-8"?>
<svg id="Layer_1" data-name="Layer 1" xmlns="http://www.w3.org/2000/svg" viewBox="0 0 541 541">
  <defs>
    <style>
      .cls-1 {
        fill: #fff;
      }
    </style>
  </defs>
  <path class="cls-1" d="M270.5,50.93c5.04,58.7,10.07,117.4,15.11,176.1,14.71-10.38,29.41-20.76,44.12-31.14-10.38,18.17-20.76,36.33-31.14,54.5,40.53,6.7,81.07,13.41,121.6,20.11-40.1,6.27-80.2,12.54-120.31,18.82,10.81,17.73,21.63,35.47,32.44,53.2-16-10.81-32.01-21.63-48.01-32.44-4.6,60-9.21,120-13.81,180-5.34-60-10.69-120-16.03-180-13.41,11.25-26.82,22.49-40.23,33.74,7.35-19.03,14.71-38.06,22.06-57.09-38.5-5.41-76.99-10.81-115.49-16.22l113.81-21.8c-8.96-17.17-17.92-34.34-26.87-51.52,16,9.95,32.01,19.9,48.01,29.84,4.91-58.7,9.82-117.4,14.74-176.1Z"/>
</svg>