<?xml version="1.0" encoding="UTF-8"?>
<svg id="Layer_1" data-name="Layer 1" xmlns="http://www.w3.org/2000/svg" viewBox="0 0 541 541">
  <defs>
    <style>
      .cls-1 {
        fill: none;
        stroke: #f7f29a;
        stroke-miterlimit: 10;
        stroke-width: 11.24px;
      }

      .cls-2 {
        font-size: 86.78px;
      }

      .cls-2, .cls-3 {
        fill: #f7f29a;
        font-family: ZebrawoodStd-Fill, 'Zebrawood Std';
      }

      .cls-3 {
        font-size: 39px;
      }

      .cls-4 {
        letter-spacing: 0em;
      }

      .cls-5 {
        fill: #d72027;
      }

      .cls-6 {
        letter-spacing: 0em;
      }
    </style>
  </defs>
  <path class="cls-5" d="M473.85,390.56s-410.49-13.31-410.48-13.27c0,0,0,0,0,0,.04.01.07,0,.07,0,.85-.27.69-13.31-5.85-19.41,0,0-2.83-2.64-19.96-5.22,3.25-5.52,3.31-9.32,2.67-11.83-.47-1.87-1.46-3.51-.74-5.51.86-2.41,3.03-2.16,3.8-4.45.22-.64.29-1.08-1.59-7.37,3.04-4.2,2.92-5.4,2.92-5.4-.15-1.47-1.32-1.64-2.62-3.75-1.11-1.79-1.35-3.42-1.65-5.54-.77-5.39.63-10.55,1.33-12.77,0,0,1.74-1.36,1.92-2.68.28-2.16-3.51-4.69-3.51-4.69,0,0,3.13-11.8,3.13-11.8,1.98-4.7,2.02-5.01,2.01-5.43-.08-2.9-3.15-2.87-4.36-6.55-.86-2.61.57-10.96.27-8.23,4.73-4.9,4.81-7.17,4.81-7.17.12-3.66-4.33-7.46-4.33-7.46,0,0,1.07-4.76,1.21-9.11,0,0,.18-5.7-1.44-11.94,2.4-5.72,2.06-7.25,2.06-7.25-.37-1.7-1.71-3.72-1.71-3.72,0,0,1.45-2.9,1.98-4.51.54-1.65.38-2.75-1.44-11.94-.73-3.65-.86-4.29-.74-5.51.28-2.74,1.4-3.73,2.04-6.34.4-1.66.64-4.09-.22-7.31,1.04.24,14.87,3.24,24.92-6.52,6.3-6.11,7.93-18.05,7.9-18.05.17-.05.23-.07.23-.07,0,0-.23.07-.23.07-.15.31,401.84,13.12,409.56,13.24.02,0,.04,0,.07,0,2.3.21.39,13.94,4.74,21.2,2.42,4.05,8.31,8.64,24.42,9.03-1.49,3.47-1.71,6.25-1.64,8.16,0,0,.07,1.68,1.56,8.29,0,0-4.51,2.61-4.75,5.34-.23,2.67,3.82,3.16,4.36,6.55.56,3.47-3.43,4.64-3.04,9.05.21,2.35,1.65,5.54,1.65,5.54,0,0-2.2,3.15-2.95,6.31-1.04,4.39.62,9.17.62,9.17,0,0-2.08,2.49-2.89,4.48-1.91,4.7,1.47,11.03,1.47,11.03-3.84,5.91-3.89,7.2-3.89,7.2-.17,4.12,4.3,8.38,4.3,8.38,0,0-2.29,3.71-2.98,7.22,0,0-.38,1.95,1.47,11.03,0,0-2.31,2.98-2.92,5.4-1.05,4.16,3.32,6.43,2.42,10.14-.72,2.94-3.36,2.68-3.83,5.37-.69,3.89,4.62,5.76,4.25,10.2-.26,3.1-2.93,3.4-2.95,6.31-.02,3.71,4.31,4.18,5.22,8.41,1.13,5.27-4.04,11.77-4.04,11.77h0s-17.93-2.38-26.2,3.75c-4.32,3.2-8.29,10.42-6.4,28.16Z"/>
  <rect class="cls-1" x="79.75" y="188.34" width="393.31" height="163.73" rx="42.08" ry="42.08" transform="translate(10.81 -10.63) rotate(2.25)"/>
  <line class="cls-1" x1="415.3" y1="194.66" x2="408.92" y2="357.35"/>
  <text class="cls-2" transform="translate(95.35 293.14) rotate(2.25)"><tspan class="cls-6" x="0" y="0">T</tspan><tspan x="54.75" y="0">IC</tspan><tspan class="cls-6" x="135.28" y="0">K</tspan><tspan class="cls-4" x="191.86" y="0">ET</tspan></text>
  <text class="cls-3" transform="translate(450 341.39) rotate(-87.75)"><tspan x="0" y="0">532025</tspan></text>
</svg>